<?xml version="1.0" encoding="utf-8"?>
<!-- Generator: Adobe Illustrator 19.0.0, SVG Export Plug-In . SVG Version: 6.00 Build 0)  -->
<svg version="1.1" id="Layer_1" xmlns="http://www.w3.org/2000/svg" xmlns:xlink="http://www.w3.org/1999/xlink" x="0px" y="0px"
	 viewBox="0 0 225.3 220.7" style="enable-background:new 0 0 225.3 220.7;" xml:space="preserve">
<style type="text/css">
	.st0{fill:#FBFBFB;}
</style>
<path class="st0" d="M207.9,83.9c3.4,18,3.4,35.5-1.1,52.9c0.5,0.2,0.9,0.4,1.4,0.5c3.5-7.6,7-15.3,10.2-22.3
	c2.6,11.2-7.2,41.9-18,55.2c1.7-7.9,3.5-16.1,5.3-24.3c-0.6-0.2-1.1-0.4-1.7-0.6c-6.6,16.6-16.7,30.5-30.4,41.7
	c0.3,0.5,0.6,0.9,1,1.4c7.4-4.2,14.7-8.5,21.3-12.3c-4.3,10.4-30,29.5-48.2,34.7c4.1-3.3,7.3-5.8,10.5-8.3c3.2-2.6,6.5-5.2,9.7-7.8
	c-0.5-0.5-1-1-1.4-1.5c-7.9,3.5-15.5,7.6-23.7,10.2c-8.3,2.7-17,3.9-25.7,6.6c8.5,0.9,17,1.8,25.8,2.7c-20.3,5.9-40.5,5.9-60.6-0.9
	c4.3,0,8.6,0.3,12.8-0.1c4.4-0.4,8.8-1.3,13.3-2.7c-17.7-1.8-34.1-6.9-49.1-16.6c-0.3,0.5-0.7,1-1,1.5c6.1,5.5,12.3,11.1,18.8,17
	C57,203.8,41.2,192,28.2,175.4c7.9,4.5,15.2,8.8,22.5,13c0.3-0.5,0.7-0.9,1-1.4C38,175.9,28,162.1,21.4,145.8
	c-0.4,0.1-0.9,0.2-1.3,0.3c0.5,3.9,0.8,7.9,1.6,11.7c0.8,3.8,2,7.6,2.7,11.5c-11.4-16.4-17.4-34.5-18-55.4
	c3.9,8.5,7.3,16.1,10.8,23.6c0.6-0.2,1.2-0.3,1.8-0.5c-4.6-17.6-5.6-35.2-0.3-52.8c-0.5-0.2-1-0.4-1.5-0.5c-3.5,7.5-6.9,15-10.1,22
	c-2-12.4,6.7-41.2,18.3-55.6c-1.8,8.5-3.6,16.7-5.4,24.9c0.5,0.2,0.9,0.4,1.4,0.5c6.6-16.2,16.5-30.1,30.1-41.2
	c-0.3-0.5-0.6-1-1-1.4c-7.1,4.1-14.3,8.1-20.9,11.9c6.2-12,33.1-31.4,46.4-33.8c-5.9,5.4-12,11-18.1,16.6c0.3,0.5,0.6,0.9,0.9,1.4
	c15.2-10,31.9-15.1,49.9-16.3c0-0.5,0-1,0-1.4c-8.2-1-16.4-2-25.5-3.1c20-5.6,39.1-5.5,59.3,0c-9.3,1.1-17.4,2-25.5,3
	c0,0.5-0.1,1-0.1,1.5c17.8,1.3,34.4,6.2,49.3,16c0.4-0.5,0.7-0.9,1.1-1.4c-6-5.5-11.9-10.9-17.5-16c10.3,0.5,37.9,20.1,46.5,34.1
	c-4.4-2.8-7.6-5.1-11.1-7.1c-3.4-1.9-7-3.5-10.9-4.7c13.2,11.8,23.5,25.6,29.9,42.1c0.5-0.2,1.1-0.3,1.6-0.5
	c-1.5-7.8-3.1-15.5-4.8-24.5c11.7,17.5,17.5,35.7,17.5,55.8c-1.5-3.8-2.7-7.7-4.4-11.4C212,91.3,209.9,87.7,207.9,83.9z
	 M139.8,145.5c0.6-3.5,1.2-6.9,1.6-9.5c-5.4,3-11,6.1-16.6,9.3c3.1-5.4,6.8-10.2,13.5-11.4c3.4-0.6,4.8-2.8,4.4-6.1
	c-0.6-5.1,0.9-9.5,4.2-13.3c2.2-2.5,2.5-5,0.2-7.5c-3.6-4.1-5.1-8.8-4.4-14.2c0.3-2.7-0.8-4.4-3.5-5.1c-5.5-1.4-9.7-4.4-12.9-9.2
	c-0.9-1.3-3.9-2.4-5.3-1.9c-5.8,2.1-11.2,1.8-16.9-0.1c-1.2-0.4-3.7,0.4-4.4,1.4c-3.5,4.9-7.8,8.3-13.6,10.1
	c-1.4,0.4-3.2,3.1-3.1,4.6c0.4,5.5-1,10.1-4.6,14.2c-2.1,2.4-2.3,5,0,7.6c3.5,3.9,5.2,8.4,4.4,13.7c-0.4,3.2,1.1,5,4.1,5.8
	c4.8,1.2,8.9,3.4,11.3,8c1.8,3.4,4.6,4.1,7.9,2.6c4.5-2,8.9-1.8,13.5,0c1.6,0.7,3.5,0.6,5.4,0.8c5,0.1,10.1,0.1,15.1,0.2
	c5.4-0.6,10.9-1.1,16.3-1.8c0.5-0.1,1.4-1.5,1.3-2.2c-0.5-4.8-1.2-9.6-1.8-14.4c-1.6,1.2-2.2,2.5-3,3.8
	C149.4,136.3,146.3,142.4,139.8,145.5z M83.1,190.5c-15-6.1-27.3-15.6-38.3-27.5c2.4,8.1,5.6,15.7,8.9,23.2c0.6,1.3,1.7,2.9,2.9,3.2
	C65.2,192,74.1,192.3,83.1,190.5z M179.6,163.2c-10.4,12.3-22.9,21.4-37.7,27.5c9.1,1.5,18,1.3,26.6-1.2c0.7-0.2,1.5-0.8,1.9-1.5
	C175.4,180.4,178.7,172.2,179.6,163.2z M44,57.3c0.6,0.4,1.1,0.7,1.7,1.1c10.2-12.5,22.7-21.8,37.5-28.6c-8.6-0.2-16.9,0.5-25.2,1.5
	c-1.4,0.2-3.2,1.4-3.8,2.6C50.7,41.6,47.4,49.5,44,57.3z M183.3,63c8.7,13.5,12.8,28.4,15.3,44.2c2.8-8.3,4.6-16.6,6.3-25
	c0.2-0.9-0.4-2.3-1-3.1C198.3,72.2,191.6,66.7,183.3,63z M41.7,62.6c-7.9,3.8-14.2,9.5-19.9,16c-0.6,0.7-1.3,1.7-1.3,2.6
	c0.1,9.2,2.4,17.9,6.6,26.3c1.8-8.1,2.9-15.9,5.3-23.2C34.7,77,38.4,70,41.7,62.6z M135.9,28.1c0.3-0.4,0.5-0.8,0.8-1.2
	c-7.2-4.2-14.4-8.5-21.7-12.7c-0.8-0.5-2-0.9-2.8-0.6c-8.8,3-16.4,7.9-23.1,14.5c8.2-0.8,16-2,23.7-2
	C120.5,26.1,128.2,27.4,135.9,28.1z M42,158.2c-8.6-13.7-13.1-28.6-15.2-44.7c-2.9,8.3-4.7,16.6-6.4,24.9c-0.2,1.1,0.3,2.7,1.1,3.7
	C27,149,33.8,154.4,42,158.2z M142.1,28.9c-0.1,0.7-0.2,1.3-0.3,2c14.9,5.6,27.3,14.7,37.8,26.7c-0.9-9.1-4.3-17.1-9.2-24.5
	c-0.7-1.1-2.4-1.9-3.8-2C158.4,30.2,150.2,29.6,142.1,28.9z M89.9,192.9c5.9,6.8,13.3,11.1,21.3,14.5c0.6,0.2,1.4,0.4,1.9,0.2
	c8.5-3.4,16.3-7.6,22.4-14.8C120.3,196.2,105.2,196.4,89.9,192.9z M183.2,158.1c8.5-3.5,14.9-9.6,20.8-16.3c0.5-0.6,1-1.5,0.9-2.2
	c-0.4-9-2.5-17.6-7.1-25.6C196.3,129.8,191.9,144.5,183.2,158.1z M156.8,53.6c-0.3,0.6-0.6,1.3-0.8,1.9
	c10.3,8.3,17.7,18.8,23.4,30.9c1.1-7.2,1.7-14.1,1.7-21.1c0-1.8-1.2-4.7-2.5-5.2C171.4,57.7,164.1,55.8,156.8,53.6z M155.7,165.7
	c0.3,0.6,0.6,1.1,0.8,1.7c7.3-2.1,14.6-4.1,21.8-6.3c0.9-0.3,2.2-1.4,2.3-2.2c1.1-8.1,0.9-16.2-1.8-25.4
	C173.5,147.1,166,157.4,155.7,165.7z M44.7,91.4c-0.3-0.4-0.7-0.8-1-1.2c-4.8,6.2-9.6,12.5-14.3,18.8c-0.5,0.6-0.7,2-0.3,2.7
	c4.1,7,8.9,13.5,15.7,18.6c-0.7-6.9-2-13.3-2-19.7C42.8,104.2,44,97.8,44.7,91.4z M179.8,129.9c0.5,0.4,1,0.7,1.6,1.1
	c4.8-6.2,9.7-12.4,14.4-18.8c0.5-0.7,0.7-2.5,0.2-3.1c-4.8-6.4-9.7-12.6-14.6-18.9c-0.5,0.3-1,0.6-1.5,0.9
	C183.4,104.1,183.4,117,179.8,129.9z M73.5,168.6c-0.4,0.4-0.8,0.9-1.2,1.3c4,6,7.9,12.1,12,18.1c0.8,1.1,2.5,2.5,3.5,2.3
	c8-1.7,15.7-4.1,23.3-9.7C96.7,179.8,84.5,175.8,73.5,168.6z M46.8,134.7c-0.6,0-1.3,0.1-1.9,0.1c-0.2,7.4-0.6,14.8-0.7,22.2
	c0,1.2,0.5,2.7,1.3,3.5c3,2.8,18.7,6.3,23.9,5.4C59.1,157.3,51.6,147,46.8,134.7z M69.3,55.6c-0.2-0.6-0.5-1.3-0.7-1.9
	c-7.4,2.2-14.8,4.3-22.2,6.6c-0.9,0.3-2.1,1.9-2.1,2.9c0,7.8,0.4,15.5,0.6,23.3c0.6,0.1,1.3,0.2,1.9,0.2
	C51.5,74.2,59,63.9,69.3,55.6z M115.2,180.6c-0.1,0.6-0.2,1.2-0.3,1.8c7.1,2.6,14.2,5.2,21.3,7.6c1,0.3,2.9,0.1,3.6-0.7
	c5.4-6,9.9-12.6,13-21.4C140.6,176,128.4,179.8,115.2,180.6z M109.8,40.6c0.2-0.7,0.4-1.3,0.6-2c-7.3-2.6-14.7-5.3-22.1-7.8
	c-0.7-0.3-2.1,0.1-2.7,0.7C80.2,37.6,75.5,44.3,72.6,53C84.4,45.2,96.5,41.2,109.8,40.6z M152.1,51.9c0.3-0.2,0.7-0.5,1-0.7
	c-4.1-6.1-8.2-12.3-12.4-18.4c-0.7-1-2.1-2.2-3-2.1c-8.2,1.3-15.7,4.3-22.7,9c6.9,1.5,13.3,2.3,19.4,4.3
	C140.5,46.2,146.2,49.3,152.1,51.9z M96.4,55.5c11,0,21.4,0,32.5,0c-4.8-4.4-9.5-8.8-14.3-12.9c-0.8-0.7-3.1-0.6-3.8,0
	C105.8,46.7,101.1,51.2,96.4,55.5z M169.1,108c0.3,0.2,0.6,0.4,1,0.6c3-6.5,6-12.9,9.2-19.9c-7-3.8-13.1-7-20.2-10.8
	c2.6,6,5,10.4,6.5,15.1C167.3,97.8,168,103,169.1,108z M66.1,77.7c-7.3,4-13.4,7.4-20.2,11.1c3.3,7,6.3,13.3,9.3,19.6
	c2-5.5,2.7-10.5,4.3-15.2C61,88.5,63.4,83.9,66.1,77.7z M132.4,164.8c6.2,0.7,12.3,1.5,18.4,1.9c1.1,0.1,3.2-1.3,3.4-2.4
	c1.5-6.1,2.6-12.4,3.8-18.4C149.4,152.2,141.2,158.2,132.4,164.8z M92.9,56.4c-6.1-0.7-12.2-1.5-18.3-2c-1.1-0.1-3.1,1.1-3.4,2
	c-1.6,6.3-2.8,12.6-4.2,18.9C75.9,68.8,84.1,62.8,92.9,56.4z M158.1,75.2c-1.2-5.9-2.3-12-3.8-17.9c-0.3-1.3-2.1-3.2-3.1-3.1
	c-6.3,0.5-12.6,1.4-18.8,2.2C141.1,62.8,149.4,68.8,158.1,75.2z M55.1,112.5c-2.7,5.9-5.4,11.8-7.9,17.8c-0.3,0.7,0.4,2.4,1.1,2.8
	c5.5,3.4,11.2,6.5,16.6,9.7C61.5,132.4,58.4,122.8,55.1,112.5z M170.1,112.8c-3.4,10.3-6.5,19.8-9.9,30c6.2-3.4,12.4-6.9,19.1-10.6
	C176,125.1,173.1,118.9,170.1,112.8z M67.1,145.8c1.3,6.3,2.6,12.5,4,18.6c0.2,0.9,1.4,2.3,2.1,2.2c6.6-0.5,13.1-1.2,19.7-1.8
	C84,158.2,75.9,152.3,67.1,145.8z M96.2,165.6c5.2,4.6,9.8,8.9,14.6,12.9c0.7,0.6,2.7,0.8,3.4,0.2c5-4.2,9.8-8.7,14.6-13.2
	C117.8,165.6,107.6,165.6,96.2,165.6z M141.2,74.3c5.1,7.1,9.7,13.5,14.5,20.2c0.6-4.5,1.4-9.1,1.7-13.7c0.1-1.1-1.2-3.2-2.2-3.5
	C150.8,76.1,146.1,75.3,141.2,74.3z M83.9,146.7c-5-7-9.5-13.3-14.5-20.2c-0.7,5.9-1.3,11.2-2,17C73.3,144.6,78.4,145.6,83.9,146.7z
	 M84,74.3c-5.6,1.1-10.9,2.2-16.8,3.3c0.8,5.9,1.6,11.4,2.3,16.7C74.3,87.7,78.9,81.3,84,74.3z M87.2,149.1
	c2.4,4.3,4.4,8.3,6.8,12.1c0.6,0.9,2.6,1.7,3.5,1.4c4.4-1.7,8.6-3.8,13.1-5.9C102.7,154,95.4,151.7,87.2,149.1z M114.5,156.6
	c4.6,2.1,8.9,4.2,13.3,6c0.8,0.3,2.6-0.1,3-0.7c2.5-4.1,4.8-8.4,7.2-12.8C129.9,151.7,122.6,154,114.5,156.6z M87.1,72.1
	c8.2-2.7,15.5-5.1,23.6-7.7c-4.8-2.1-9.1-4.2-13.5-5.9c-0.7-0.3-2.4,0.2-2.8,0.8C92,63.4,89.6,67.6,87.1,72.1z M156.9,98
	c0,8.7,0,16.5,0,25c3.5-3.7,6.7-7.1,9.8-10.6c0.6-0.7,0.8-2.4,0.4-3C163.9,105.5,160.4,101.9,156.9,98z M138.2,72.1
	c-2.9-5.1-5.5-9.7-8.4-14.9c-5.4,2.7-10.3,5-15,7.3C122.7,67,130,69.4,138.2,72.1z M68.3,99c-13.7,12.5-13.9,10.3-0.2,23.3
	c0.1,0.1,0.3,0,0.2,0C68.3,114.5,68.3,106.9,68.3,99z M121.5,74c-9.3-9.7-8.7-9.5-18,0C109.4,74,115.4,74,121.5,74z M121.9,147.1
	c-6.3,0-12.2,0-18.3,0C111.1,156.2,113.1,156.2,121.9,147.1z M98,145.4c-4.6-3.4-9.4-6.9-14.1-10.4C85.8,148,85.5,148.1,98,145.4z
	 M97.8,75.7c-9.9-3.4-14.3-0.2-13.6,10C88.7,82.4,93.3,79,97.8,75.7z M80.9,90.4c-11.6,5.4-12.3,7.7-5.6,17.4
	c0.7-2.9,1.2-5.8,2.1-8.5C78.2,96.5,79.5,93.9,80.9,90.4z M127.1,76c2.6,1.6,5.2,3,7.6,4.7c2.3,1.7,4.4,3.7,6.8,5.8
	C140.2,74,136.8,71.6,127.1,76z M144.6,90.9c1.2,3,2.4,5.7,3.3,8.4c0.9,2.8,1.4,5.6,2.1,8.7C156.3,96.1,156.8,96.5,144.6,90.9z
	 M80.4,130.6c-1.8-5.8-3.6-11.3-5.4-17C68.9,123,69.5,125.3,80.4,130.6z M150.1,112.8c-0.8,3.4-1.4,6.3-2.3,9.1
	c-0.9,2.8-2.2,5.4-3.4,8.4C156.8,124.3,156.2,125.3,150.1,112.8z"/>
</svg>
